<svg width="337" height="63" viewBox="0 0 337 63" fill="none" xmlns="http://www.w3.org/2000/svg">
<path d="M13.32 5.56V50.6H34.92L33.56 61H0.2V5.56H13.32ZM75.9844 38.92C75.9844 40.68 75.9044 42.2 75.7444 43.48H49.4244C49.851 47.0533 50.8644 49.56 52.4644 51C54.0644 52.44 56.2777 53.16 59.1044 53.16C60.811 53.16 62.4644 52.8667 64.0644 52.28C65.6644 51.64 67.3977 50.68 69.2644 49.4L74.4644 56.44C69.5044 60.3867 63.9844 62.36 57.9044 62.36C51.0244 62.36 45.7444 60.3333 42.0644 56.28C38.3844 52.2267 36.5444 46.7867 36.5444 39.96C36.5444 35.64 37.3177 31.7733 38.8644 28.36C40.411 24.8933 42.6777 22.1733 45.6644 20.2C48.651 18.1733 52.2244 17.16 56.3844 17.16C62.5177 17.16 67.3177 19.08 70.7844 22.92C74.251 26.76 75.9844 32.0933 75.9844 38.92ZM63.5844 35.32C63.4777 28.8133 61.1844 25.56 56.7044 25.56C54.5177 25.56 52.811 26.36 51.5844 27.96C50.411 29.56 49.691 32.2 49.4244 35.88H63.5844V35.32ZM101.485 17.16C107.992 17.16 113.085 19.16 116.765 23.16C120.445 27.1067 122.285 32.6533 122.285 39.8C122.285 44.3333 121.432 48.3067 119.725 51.72C118.072 55.08 115.672 57.6933 112.525 59.56C109.432 61.4267 105.752 62.36 101.485 62.36C95.0317 62.36 89.9383 60.3867 86.205 56.44C82.525 52.44 80.685 46.8667 80.685 39.72C80.685 35.1867 81.5117 31.24 83.165 27.88C84.8717 24.4667 87.2717 21.8267 90.365 19.96C93.5117 18.0933 97.2183 17.16 101.485 17.16ZM101.485 26.44C98.925 26.44 97.005 27.5333 95.725 29.72C94.445 31.8533 93.805 35.1867 93.805 39.72C93.805 44.36 94.4183 47.7467 95.645 49.88C96.925 52.0133 98.8717 53.08 101.485 53.08C104.045 53.08 105.965 52.0133 107.245 49.88C108.525 47.6933 109.165 44.3333 109.165 39.8C109.165 35.16 108.525 31.7733 107.245 29.64C106.018 27.5067 104.098 26.44 101.485 26.44ZM154.684 17.16C158.364 17.16 161.244 18.28 163.324 20.52C165.404 22.76 166.444 25.9067 166.444 29.96V61H153.804V32.12C153.804 29.9867 153.457 28.52 152.764 27.72C152.124 26.8667 151.137 26.44 149.804 26.44C147.244 26.44 144.79 28.28 142.444 31.96V61H129.804V18.52H140.844L141.724 23.56C143.537 21.4267 145.484 19.8267 147.564 18.76C149.697 17.6933 152.07 17.16 154.684 17.16ZM209.736 48.68C209.736 50.28 209.949 51.4533 210.376 52.2C210.856 52.9467 211.602 53.5067 212.616 53.88L209.976 62.12C207.362 61.9067 205.229 61.3467 203.576 60.44C201.922 59.48 200.642 57.9867 199.736 55.96C196.962 60.2267 192.696 62.36 186.936 62.36C182.722 62.36 179.362 61.1333 176.856 58.68C174.349 56.2267 173.096 53.0267 173.096 49.08C173.096 44.44 174.802 40.8933 178.216 38.44C181.629 35.9867 186.562 34.76 193.016 34.76H197.336V32.92C197.336 30.4133 196.802 28.7067 195.736 27.8C194.669 26.84 192.802 26.36 190.136 26.36C188.749 26.36 187.069 26.5733 185.096 27C183.122 27.3733 181.096 27.9067 179.016 28.6L176.136 20.28C178.802 19.2667 181.522 18.4933 184.296 17.96C187.122 17.4267 189.736 17.16 192.136 17.16C198.216 17.16 202.669 18.4133 205.496 20.92C208.322 23.4267 209.736 27.1867 209.736 32.2V48.68ZM190.616 53.32C193.496 53.32 195.736 51.96 197.336 49.24V41.72H194.216C191.336 41.72 189.176 42.2267 187.736 43.24C186.349 44.2533 185.656 45.8267 185.656 47.96C185.656 49.6667 186.082 51 186.936 51.96C187.842 52.8667 189.069 53.32 190.616 53.32ZM242.844 17.32C244.39 17.32 245.804 17.5067 247.084 17.88L245.084 30.12C243.484 29.7467 242.204 29.56 241.244 29.56C238.737 29.56 236.817 30.44 235.484 32.2C234.204 33.9067 233.19 36.4933 232.444 39.96V61H219.804V18.52H230.844L231.884 26.76C232.844 23.8267 234.284 21.5333 236.204 19.88C238.177 18.1733 240.39 17.32 242.844 17.32ZM287.571 1.64V61H276.371L275.731 56.04C272.745 60.2533 268.718 62.36 263.651 62.36C258.371 62.36 254.345 60.3333 251.571 56.28C248.851 52.2267 247.491 46.68 247.491 39.64C247.491 35.32 248.211 31.4533 249.651 28.04C251.091 24.6267 253.118 21.96 255.731 20.04C258.398 18.12 261.438 17.16 264.851 17.16C268.905 17.16 272.265 18.4933 274.931 21.16V0.279995L287.571 1.64ZM267.571 53.08C270.505 53.08 272.958 51.48 274.931 48.28V29.96C273.918 28.7333 272.878 27.8267 271.811 27.24C270.798 26.6533 269.625 26.36 268.291 26.36C265.945 26.36 264.078 27.4533 262.691 29.64C261.305 31.8267 260.611 35.1867 260.611 39.72C260.611 44.68 261.198 48.1467 262.371 50.12C263.598 52.0933 265.331 53.08 267.571 53.08ZM315.86 17.16C322.367 17.16 327.46 19.16 331.14 23.16C334.82 27.1067 336.66 32.6533 336.66 39.8C336.66 44.3333 335.807 48.3067 334.1 51.72C332.447 55.08 330.047 57.6933 326.9 59.56C323.807 61.4267 320.127 62.36 315.86 62.36C309.407 62.36 304.313 60.3867 300.58 56.44C296.9 52.44 295.06 46.8667 295.06 39.72C295.06 35.1867 295.887 31.24 297.54 27.88C299.247 24.4667 301.647 21.8267 304.74 19.96C307.887 18.0933 311.593 17.16 315.86 17.16ZM315.86 26.44C313.3 26.44 311.38 27.5333 310.1 29.72C308.82 31.8533 308.18 35.1867 308.18 39.72C308.18 44.36 308.793 47.7467 310.02 49.88C311.3 52.0133 313.247 53.08 315.86 53.08C318.42 53.08 320.34 52.0133 321.62 49.88C322.9 47.6933 323.54 44.3333 323.54 39.8C323.54 35.16 322.9 31.7733 321.62 29.64C320.393 27.5067 318.473 26.44 315.86 26.44Z" fill="black"/>
</svg>
